<svg width="692" height="680" viewBox="0 0 692 680" fill="none" xmlns="http://www.w3.org/2000/svg">
<path d="M29.6121 286.483C91.1343 282.615 131.972 257.79 222.687 149.676C255.847 180.379 271.651 200.83 292.719 245.579C236.105 311.393 194.533 342.185 98.2608 383.366C86.3342 347.27 71.7758 326.114 29.6121 286.483Z" stroke="black" stroke-width="1.51527" stroke-linecap="round" stroke-linejoin="round"/>
<g clip-path="url(#clip0_105:24844)">
<path d="M160.431 308.16C167.483 316.816 179.449 318.247 191.502 311.32L196.049 318.038L201.812 314.137L197.264 307.419C209.135 297.941 212.206 285.719 205.242 275.432C199.295 266.648 190.622 265.107 177.586 269.759L172.898 271.426L158.678 250.421C165.289 246.832 171.73 247.338 176.158 251.607L184.28 246.109C177.379 237.891 165.494 236.687 153.97 243.465L149.452 236.791L143.69 240.692L148.301 247.504C138.449 256.027 135.74 267.866 142.039 277.17C147.476 285.203 156.662 287.275 167.649 283.333L171.625 281.947L186.701 304.217C179.717 307.575 172.991 307.053 168.503 302.696L160.431 308.16ZM164.819 274.285C158.073 276.732 152.894 275.711 149.935 271.341C146.405 266.125 147.688 259.642 153.043 254.51L166.115 273.818L164.823 274.29L164.819 274.285ZM180.61 278.677C188.928 275.648 194.054 276.496 197.458 281.523C201.56 287.584 199.731 294.712 192.555 300.464L178.362 279.497L180.606 278.671L180.61 278.677Z" fill="#D2D2D2"/>
</g>
<path d="M73.3191 278.564C53.9697 248.853 66.4579 263.805 24.2943 224.174C85.8164 220.306 126.654 195.48 217.369 87.3672C250.529 118.07 266.333 138.521 287.401 183.27L269.776 198.958" stroke="black" stroke-width="1.51527" stroke-linecap="round" stroke-linejoin="round"/>
<path fill-rule="evenodd" clip-rule="evenodd" d="M168.225 210.039L152.672 188.679C159.282 185.09 165.724 185.596 170.152 189.865L178.274 184.367C171.373 176.148 159.488 174.945 147.964 181.723L143.446 175.049L137.683 178.95L142.295 185.762C132.443 194.284 129.734 206.124 136.032 215.428C140.407 221.89 147.327 223.793 155.54 222.513L168.225 210.039ZM143.929 209.598C146.888 213.968 152.067 214.99 158.813 212.542L158.816 212.548L160.108 212.076L147.037 192.767C141.681 197.899 140.399 204.383 143.929 209.598Z" fill="#C4C4C4"/>
<rect x="460.642" y="309.253" width="206.077" height="206.077" fill="#BDBDBD"/>
<rect x="337.147" y="119.087" width="204.561" height="204.561" stroke="black" stroke-width="1.51527"/>
<rect x="187.893" y="221.367" width="206.077" height="206.077" fill="#262626"/>
<path fill-rule="evenodd" clip-rule="evenodd" d="M573.775 223.924C573.775 223.924 477.612 166.97 473.852 165.592V154.18C485.72 151.179 493.656 141.236 493.656 129.515C493.656 115.373 480.956 103.885 465.371 103.885C457.84 103.929 450.636 106.652 445.339 111.457C440.042 116.262 437.085 122.756 437.115 129.515C437.115 133.289 440.516 136.329 444.735 136.329C448.94 136.329 450.849 131.924 450.849 128.15C450.849 121.556 458.67 115.515 465.83 115.515C473.006 115.515 480.482 122.921 480.482 129.515C480.482 136.097 472.532 141.468 465.357 141.468C461.138 141.468 458.569 144.52 458.569 148.281V165.308C455.728 166.249 358.187 223.924 358.187 223.924C350.969 230.532 341.139 257.18 375.494 257.18H556.038C587.522 257.18 580.677 230.21 573.775 223.924ZM559.64 245.124H371.634C362.005 245.124 362.277 235.387 366.654 231.137L457.765 179.412C462.688 177.068 468.873 176.759 473.738 179.36L565.15 231.15C569.556 235.4 568.465 245.124 559.64 245.124Z" fill="#C7C7C7"/>
<rect x="416.372" y="1.88432" width="284.746" height="620.102" rx="43.9428" transform="rotate(16.5612 416.372 1.88432)" stroke="black" stroke-width="3.03054"/>
<rect x="515.07" y="49.6691" width="74.4382" height="1.53481" transform="rotate(16.5612 515.07 49.6691)" fill="black"/>
<circle cx="549.543" cy="49.5124" r="3.06962" transform="rotate(16.5612 549.543 49.5124)" fill="black"/>
<circle cx="499.106" cy="44.1211" r="6.13924" transform="rotate(16.5612 499.106 44.1211)" fill="black"/>
<circle cx="390.436" cy="591.281" r="25.5083" transform="rotate(16.5612 390.436 591.281)" stroke="black" stroke-width="3.03054"/>
<defs>
<clipPath id="clip0_105:24844">
<rect width="106.745" height="106.745" fill="white" transform="translate(98.0115 263.558) rotate(-34.0963)"/>
</clipPath>
</defs>
</svg>
