<svg width="183" height="22" viewBox="0 0 183 22" fill="none" xmlns="http://www.w3.org/2000/svg">
<path d="M13.7812 21.5H12.9219L5.1875 3.79688V19.9375L8 20.3594V21.5H0.546875V20.3594L3.23438 19.9375V2.09375L0.546875 1.6875V0.546875H8.78125L14.7656 14.3281L20.875 0.546875H29.2812V1.6875L26.5938 2.09375V19.9375L29.2812 20.3594V21.5H18.8594V20.3594L21.6719 19.9375V3.79688L13.7812 21.5ZM42.3402 6.88672C42.3402 7.23047 42.2152 7.52734 41.9652 7.77734C41.7152 8.02734 41.4144 8.15234 41.0628 8.15234C40.7191 8.15234 40.4222 8.02734 40.1722 7.77734C39.9222 7.52734 39.7972 7.23047 39.7972 6.88672C39.7972 6.53516 39.9222 6.23438 40.1722 5.98438C40.4222 5.73438 40.7191 5.60938 41.0628 5.60938C41.4144 5.60938 41.7152 5.73438 41.9652 5.98438C42.2152 6.23438 42.3402 6.53516 42.3402 6.88672ZM42.223 20.6797L44.1097 20.9727V21.5H38.4027V20.9727L40.2777 20.6797V11.3047L38.7191 11.0117V10.4844H42.223V20.6797ZM53.7711 18.4062C53.7711 19.5 53.4234 20.3281 52.7281 20.8906C52.0406 21.4531 51.0211 21.7344 49.6695 21.7344C49.1227 21.7344 48.5172 21.6758 47.8531 21.5586C47.1969 21.4492 46.6813 21.3242 46.3063 21.1836V18.4766H46.8336L47.4078 20.0117C47.9938 20.543 48.7555 20.8086 49.693 20.8086C51.2086 20.8086 51.9664 20.1602 51.9664 18.8633C51.9664 17.9102 51.3688 17.2305 50.1734 16.8242L49.1305 16.4844C48.3414 16.2266 47.7672 15.9648 47.4078 15.6992C47.0484 15.4336 46.7711 15.1094 46.5758 14.7266C46.3805 14.3359 46.2828 13.8672 46.2828 13.3203C46.2828 12.3516 46.6109 11.5898 47.2672 11.0352C47.9313 10.4727 48.8258 10.1914 49.9508 10.1914C50.7555 10.1914 51.7633 10.3125 52.9742 10.5547V12.957H52.4234L51.9313 11.6797C51.5172 11.3125 50.8648 11.1289 49.9742 11.1289C49.3414 11.1289 48.857 11.2852 48.5211 11.5977C48.193 11.9102 48.0289 12.332 48.0289 12.8633C48.0289 13.3086 48.1773 13.6836 48.4742 13.9883C48.7789 14.293 49.2359 14.5469 49.8453 14.75C50.9938 15.1406 51.7438 15.4258 52.0953 15.6055C52.4469 15.7852 52.7438 16.0078 52.9859 16.2734C53.2359 16.5312 53.4273 16.8281 53.5602 17.1641C53.7008 17.5 53.7711 17.9141 53.7711 18.4062ZM64.7267 11.4688H62.8283V10.8945L64.7267 10.4375V9.66406C64.7267 8.03906 65.047 6.78906 65.6877 5.91406C66.3361 5.03906 67.2423 4.60156 68.4064 4.60156C69.008 4.60156 69.5666 4.67578 70.0822 4.82422V7.22656H69.508L68.9806 5.78516C68.715 5.62109 68.3947 5.53906 68.0197 5.53906C67.5275 5.53906 67.1798 5.75781 66.9767 6.19531C66.7736 6.63281 66.672 7.45312 66.672 8.65625V10.4844H69.6017V11.4688H66.672V20.5859L69.0509 20.9727V21.5H63.0978V20.9727L64.7267 20.5859V11.4688ZM81.8881 15.9336C81.8881 19.8008 80.1694 21.7344 76.7319 21.7344C75.0756 21.7344 73.8256 21.2383 72.9819 20.2461C72.1381 19.2539 71.7162 17.8164 71.7162 15.9336C71.7162 14.0742 72.1381 12.6523 72.9819 11.668C73.8256 10.6836 75.1069 10.1914 76.8256 10.1914C78.4975 10.1914 79.7592 10.6758 80.6108 11.6445C81.4623 12.6055 81.8881 14.0352 81.8881 15.9336ZM79.7787 15.9336C79.7787 14.2461 79.5327 13.0234 79.0405 12.2656C78.5483 11.5078 77.7787 11.1289 76.7319 11.1289C75.7084 11.1289 74.9662 11.4922 74.5053 12.2188C74.0522 12.9453 73.8256 14.1836 73.8256 15.9336C73.8256 17.707 74.0561 18.9648 74.517 19.707C74.9858 20.4414 75.7241 20.8086 76.7319 20.8086C77.7631 20.8086 78.5287 20.4258 79.0287 19.6602C79.5287 18.8945 79.7787 17.6523 79.7787 15.9336ZM91.3034 10.1914V13.168H90.7995L90.1198 11.8789C89.7292 11.8789 89.2644 11.9336 88.7253 12.043C88.1941 12.1445 87.7331 12.2812 87.3425 12.4531V20.6797L89.2292 20.9727V21.5H84.0027V20.9727L85.3972 20.6797V11.3047L84.0027 11.0117V10.4844H87.2136L87.3191 11.8555C87.7878 11.4648 88.4206 11.0898 89.2175 10.7305C90.0222 10.3711 90.6589 10.1914 91.1277 10.1914H91.3034ZM102.775 11.375C103.361 11.0391 103.982 10.7578 104.638 10.5312C105.294 10.3047 105.872 10.1914 106.372 10.1914C106.911 10.1914 107.408 10.293 107.861 10.4961C108.322 10.6992 108.665 11.0234 108.892 11.4688C109.493 11.1328 110.197 10.8359 111.001 10.5781C111.814 10.3203 112.486 10.1914 113.017 10.1914C114.892 10.1914 115.829 11.2734 115.829 13.4375V20.6797L117.247 20.9727V21.5H112.243V20.9727L113.884 20.6797V13.6484C113.884 12.3047 113.259 11.6328 112.009 11.6328C111.806 11.6328 111.568 11.6484 111.294 11.6797C111.029 11.7109 110.759 11.7461 110.486 11.7852C110.22 11.8242 109.962 11.8711 109.712 11.9258C109.47 11.9727 109.267 12.0117 109.103 12.043C109.236 12.4648 109.302 12.9297 109.302 13.4375V20.6797L110.954 20.9727V21.5H105.728V20.9727L107.357 20.6797V13.6484C107.357 13 107.189 12.5039 106.853 12.1602C106.525 11.8086 106.029 11.6328 105.365 11.6328C104.677 11.6328 103.822 11.7461 102.798 11.9727V20.6797L104.45 20.9727V21.5H99.4583V20.9727L100.853 20.6797V11.3047L99.4583 11.0117V10.4844H102.681L102.775 11.375ZM122.795 6.88672C122.795 7.23047 122.67 7.52734 122.42 7.77734C122.17 8.02734 121.87 8.15234 121.518 8.15234C121.174 8.15234 120.878 8.02734 120.628 7.77734C120.378 7.52734 120.253 7.23047 120.253 6.88672C120.253 6.53516 120.378 6.23438 120.628 5.98438C120.878 5.73438 121.174 5.60938 121.518 5.60938C121.87 5.60938 122.17 5.73438 122.42 5.98438C122.67 6.23438 122.795 6.53516 122.795 6.88672ZM122.678 20.6797L124.565 20.9727V21.5H118.858V20.9727L120.733 20.6797V11.3047L119.174 11.0117V10.4844H122.678V20.6797ZM129.551 11.375C130.152 11.0312 130.793 10.75 131.473 10.5312C132.152 10.3047 132.719 10.1914 133.172 10.1914C134.125 10.1914 134.844 10.4688 135.328 11.0234C135.812 11.5781 136.055 12.3828 136.055 13.4375V20.6797L137.39 20.9727V21.5H132.644V20.9727L134.109 20.6797V13.6484C134.109 13 133.949 12.4922 133.629 12.125C133.316 11.75 132.828 11.5625 132.164 11.5625C131.461 11.5625 130.598 11.6758 129.574 11.9023V20.6797L131.062 20.9727V21.5H126.305V20.9727L127.629 20.6797V11.3047L126.305 11.0117V10.4844H129.445L129.551 11.375ZM142.915 6.88672C142.915 7.23047 142.79 7.52734 142.54 7.77734C142.29 8.02734 141.989 8.15234 141.638 8.15234C141.294 8.15234 140.997 8.02734 140.747 7.77734C140.497 7.52734 140.372 7.23047 140.372 6.88672C140.372 6.53516 140.497 6.23438 140.747 5.98438C140.997 5.73438 141.294 5.60938 141.638 5.60938C141.989 5.60938 142.29 5.73438 142.54 5.98438C142.79 6.23438 142.915 6.53516 142.915 6.88672ZM142.798 20.6797L144.685 20.9727V21.5H138.978V20.9727L140.853 20.6797V11.3047L139.294 11.0117V10.4844H142.798V20.6797ZM149.694 11.375C150.28 11.0391 150.901 10.7578 151.557 10.5312C152.213 10.3047 152.791 10.1914 153.291 10.1914C153.83 10.1914 154.327 10.293 154.78 10.4961C155.241 10.6992 155.584 11.0234 155.811 11.4688C156.413 11.1328 157.116 10.8359 157.92 10.5781C158.733 10.3203 159.405 10.1914 159.936 10.1914C161.811 10.1914 162.748 11.2734 162.748 13.4375V20.6797L164.166 20.9727V21.5H159.163V20.9727L160.803 20.6797V13.6484C160.803 12.3047 160.178 11.6328 158.928 11.6328C158.725 11.6328 158.487 11.6484 158.213 11.6797C157.948 11.7109 157.678 11.7461 157.405 11.7852C157.139 11.8242 156.881 11.8711 156.631 11.9258C156.389 11.9727 156.186 12.0117 156.022 12.043C156.155 12.4648 156.221 12.9297 156.221 13.4375V20.6797L157.873 20.9727V21.5H152.647V20.9727L154.276 20.6797V13.6484C154.276 13 154.108 12.5039 153.772 12.1602C153.444 11.8086 152.948 11.6328 152.284 11.6328C151.596 11.6328 150.741 11.7461 149.717 11.9727V20.6797L151.37 20.9727V21.5H146.377V20.9727L147.772 20.6797V11.3047L146.377 11.0117V10.4844H149.6L149.694 11.375ZM170.722 10.2383C171.925 10.2383 172.808 10.4844 173.371 10.9766C173.941 11.4688 174.226 12.2227 174.226 13.2383V20.6797L175.597 20.9727V21.5H172.574L172.351 20.3984C171.461 21.2891 170.324 21.7344 168.941 21.7344C167.058 21.7344 166.117 20.6406 166.117 18.4531C166.117 17.7188 166.258 17.1133 166.539 16.6367C166.828 16.1523 167.285 15.7852 167.91 15.5352C168.535 15.2773 169.441 15.1367 170.629 15.1133L172.281 15.0664V13.3438C172.281 12.5859 172.14 12.0273 171.859 11.668C171.586 11.3086 171.16 11.1289 170.582 11.1289C169.8 11.1289 169.086 11.3125 168.437 11.6797L168.039 13.0508H167.383V10.6484C168.648 10.375 169.761 10.2383 170.722 10.2383ZM172.281 15.8867L170.746 15.9336C169.699 15.9727 168.988 16.1758 168.613 16.543C168.246 16.9102 168.062 17.5234 168.062 18.3828C168.062 19.7578 168.621 20.4453 169.738 20.4453C170.269 20.4453 170.726 20.3867 171.109 20.2695C171.5 20.1445 171.89 19.9883 172.281 19.8008V15.8867ZM180.958 20.6797L182.845 20.9727V21.5H177.138V20.9727L179.013 20.6797V5.65625L177.138 5.375V4.84766H180.958V20.6797Z" fill="white"/>
</svg>
