<svg width="566" height="822" viewBox="0 0 566 822" fill="none" xmlns="http://www.w3.org/2000/svg">
<g clip-path="url(#clip0_122:25003)">
<rect x="227.876" y="124.092" width="234.776" height="511.281" rx="36.2313" transform="rotate(4.3226 227.876 124.092)" stroke="black" stroke-width="2.49871"/>
<rect x="315.756" y="145.346" width="61.3751" height="1.26547" transform="rotate(4.3226 315.756 145.346)" fill="black"/>
<circle cx="343.506" cy="139.194" r="2.53093" transform="rotate(4.3226 343.506 139.194)" fill="black"/>
<circle cx="301.923" cy="143.665" r="5.06187" transform="rotate(4.3226 301.923 143.665)" fill="black"/>
<circle cx="309.994" cy="603.546" r="21.0319" transform="rotate(4.3226 309.994 603.546)" stroke="black" stroke-width="2.49871"/>
<circle cx="319" cy="608" r="99" stroke="#525252" stroke-width="4"/>
<circle cx="396" cy="432" r="121" stroke="#525252" stroke-width="4"/>
<rect x="94.7302" y="60.1343" width="126" height="126" transform="rotate(9.86899 94.7302 60.1343)" fill="black"/>
<rect x="148.596" y="118" width="126" height="126" transform="rotate(9.86899 148.596 118)" fill="#BDBDBD"/>
<rect x="194.596" y="169" width="126" height="126" transform="rotate(9.86899 194.596 169)" fill="#3B3B3B"/>
<rect x="321.61" y="545.155" width="126" height="126" transform="rotate(-10.3074 321.61 545.155)" fill="black"/>
<path d="M108.2 551.725L194.859 801.243L-64.5591 751.533L108.2 551.725Z" fill="black" fill-opacity="0.8"/>
<path d="M529.175 63.7002L615.834 313.218L356.416 263.508L529.175 63.7002Z" fill="black" fill-opacity="0.5"/>
<circle cx="258" cy="446" r="160" stroke="black" stroke-width="4"/>
<rect x="-23.3297" y="45.0877" width="104.445" height="227.453" rx="16.1182" transform="rotate(-13.5198 -23.3297 45.0877)" stroke="black" stroke-width="1.1116"/>
<rect x="16.7817" y="42.1089" width="27.3039" height="0.562967" transform="rotate(-13.5198 16.7817 42.1089)" fill="black"/>
<circle cx="27.6944" cy="35.7216" r="1.12593" transform="rotate(-13.5198 27.6944 35.7216)" fill="black"/>
<circle cx="10.6947" cy="43.2831" r="2.25187" transform="rotate(-13.5198 10.6947 43.2831)" fill="black"/>
<circle cx="76.7974" cy="236.93" r="9.35644" transform="rotate(-13.5198 76.7974 236.93)" stroke="black" stroke-width="1.1116"/>
<rect x="478.993" y="636.766" width="129.721" height="282.497" rx="20.0188" transform="rotate(30.1768 478.993 636.766)" stroke="black" stroke-width="1.38061"/>
<rect x="517.568" y="668.508" width="33.9115" height="0.699207" transform="rotate(30.1768 517.568 668.508)" fill="black"/>
<circle cx="532.849" cy="672.135" r="1.39841" transform="rotate(30.1768 532.849 672.135)" fill="black"/>
<circle cx="511.095" cy="664.339" r="2.79683" transform="rotate(30.1768 511.095 664.339)" fill="black"/>
</g>
<rect x="4" y="4" width="558" height="814" stroke="black" stroke-width="8"/>
<defs>
<clipPath id="clip0_122:25003">
</clipPath>
</defs>
</svg>
