<svg width="574" height="830" viewBox="0 0 574 830" fill="none" xmlns="http://www.w3.org/2000/svg">
<g clip-path="url(#clip0_122:25003)">
<rect x="230.725" y="126.752" width="237.275" height="513.779" rx="37.4807" transform="rotate(4.3226 230.725 126.752)" stroke="black" stroke-width="2.49871"/>
<rect x="319.756" y="149.346" width="61.3751" height="1.26547" transform="rotate(4.3226 319.756 149.346)" fill="black"/>
<circle cx="347.506" cy="143.194" r="2.53093" transform="rotate(4.3226 347.506 143.194)" fill="black"/>
<circle cx="305.923" cy="147.665" r="5.06187" transform="rotate(4.3226 305.923 147.665)" fill="black"/>
<circle cx="313.994" cy="607.546" r="22.2813" transform="rotate(4.3226 313.994 607.546)" stroke="black" stroke-width="2.49871"/>
<circle cx="323" cy="612" r="101" stroke="#525252" stroke-width="4"/>
<circle cx="400" cy="436" r="123" stroke="#525252" stroke-width="4"/>
<rect x="98.7302" y="64.1343" width="126" height="126" transform="rotate(9.86899 98.7302 64.1343)" fill="black"/>
<rect x="152.596" y="122" width="126" height="126" transform="rotate(9.86899 152.596 122)" fill="#BDBDBD"/>
<rect x="198.596" y="173" width="126" height="126" transform="rotate(9.86899 198.596 173)" fill="#3B3B3B"/>
<rect x="325.61" y="549.154" width="126" height="126" transform="rotate(-10.3074 325.61 549.154)" fill="black"/>
<path d="M112.2 555.725L198.859 805.242L-60.5591 755.532L112.2 555.725Z" fill="black" fill-opacity="0.8"/>
<path d="M533.175 67.7002L619.834 317.218L360.416 267.508L533.175 67.7002Z" fill="black" fill-opacity="0.5"/>
<circle cx="262" cy="450" r="162" stroke="black" stroke-width="4"/>
<rect x="-20" y="48.6772" width="105.556" height="228.564" rx="16.674" transform="rotate(-13.5198 -20 48.6772)" stroke="black" stroke-width="1.1116"/>
<rect x="20.7817" y="46.1089" width="27.3039" height="0.562967" transform="rotate(-13.5198 20.7817 46.1089)" fill="black"/>
<circle cx="31.6944" cy="39.7216" r="1.12593" transform="rotate(-13.5198 31.6944 39.7216)" fill="black"/>
<circle cx="14.6947" cy="47.2831" r="2.25187" transform="rotate(-13.5198 14.6947 47.2831)" fill="black"/>
<circle cx="80.7974" cy="240.93" r="9.91224" transform="rotate(-13.5198 80.7974 240.93)" stroke="black" stroke-width="1.1116"/>
<rect x="482.744" y="639.822" width="131.101" height="283.878" rx="20.7091" transform="rotate(30.1768 482.744 639.822)" stroke="black" stroke-width="1.38061"/>
<rect x="521.568" y="672.508" width="33.9115" height="0.699207" transform="rotate(30.1768 521.568 672.508)" fill="black"/>
<circle cx="536.849" cy="676.135" r="1.39841" transform="rotate(30.1768 536.849 676.135)" fill="black"/>
<circle cx="515.095" cy="668.339" r="2.79683" transform="rotate(30.1768 515.095 668.339)" fill="black"/>
</g>
<rect x="4" y="4" width="566" height="822" stroke="black" stroke-width="8"/>
<defs>
<clipPath id="clip0_122:25003">
<rect x="4" y="4" width="566" height="822" fill="white"/>
</clipPath>
</defs>
</svg>
